-
http:// www . torrentkit. com        
http:// www .torrentkit. com       the fast  and The Hottest Private Tracker on the net

Please Seed back to make the speed Faster!!!

and don't forget to visit      ...... www .torrentkit .com..........
-[align=center][IMG]http://img715.imageshack.us/img715/3958/repochick2009.jpg[/IMG]

** ** ** ** ** ** ** ** ** 

IMDB........ http://www.imdb.com/title/tt1379734/

** ** ** ** ** ** ** ** ** 

[b]PLOT[/b]

As a repo chick, wealthy bad-girl Pixxi and her entourage get mixed up in a devious kidnapping plot that threatens to wipe out the city of Los Angeles. 

** ** ** ** ** ** ** ** ** 

[b]AVI Information[/b]

Complete name : Repo.Chick.2009 480 BRRip Xvid AC3 - PRESTiGE.avi 
Format : AVI 
Format/Info : Audio Video Interleave 
Format profile : OpenDML 
Format settings : rec 
File size : 1.76 GiB 
Duration : 1h 28mn 
Overall bit rate : 2 859 Kbps 
Source: Repo.Chick.2009.720p.BluRay.x264-Japhson
Encoder: Twisted

[b]Video Stream[/b]

ID : 0 
Format : MPEG-4 Visual 
Format profile : Advanced Simple@L5 
Format settings, BVOP : 2 
Format settings, QPel : No 
Format settings, GMC : No warppoints 
Format settings, Matrix : Default (MPEG) 
Codec ID : XVID 
Codec ID/Hint : XviD 
Duration : 1h 28mn 
Bit rate : 2 213 Kbps 
Width : 720 pixels 
Height : 400 pixels 
Display aspect ratio : 16:9 
Frame rate : 23.976 fps 
Color space : YUV 
Chroma subsampling : 4:2:0 
Bit depth : 8 bits 
Scan type : Progressive 
Compression mode : Lossy 
Bits/(Pixel*Frame) : 0.321 
Stream size : 1.37 GiB (77%) 
Writing library : XviD 62 


[b]Audio Stream[/b]

ID : 1 
Format : AC-3 
Format/Info : Audio Coding 3 
Mode extension : CM (complete main) 
Codec ID : 2000 
Duration : 1h 28mn 
Bit rate mode : Constant 
Bit rate : 640 Kbps 
Channel(s) : 5 channels 
Channel positions : Front: L C R, Side: L R 
Sampling rate : 48.0 KHz 
Bit depth : 16 bits 
Compression mode : Lossy 
Stream size : 404 MiB (22%) 
Alignment : Aligned on interleaves 
Interleave, duration : 64 ms (1.53 video frames) 
Interleave, preload duration : 192 ms 
Title : T2_Audio - 5.0 channels 


** ** ** ** ** ** ** ** ** 

[b]Screens[/b]

[IMG]http://img146.imageshack.us/img146/2921/pic11y.png[/IMG]
[IMG]http://img810.imageshack.us/img810/6519/pic12n.png[/IMG]
[IMG]http://img641.imageshack.us/img641/3707/pic13c.png[/IMG]
[IMG]http://img854.imageshack.us/img854/6884/pic14.png[/IMG]
[IMG]http://img40.imageshack.us/img40/6480/pic15v.png[/IMG]
[IMG]http://img801.imageshack.us/img801/1263/pic16.png[/IMG]
[IMG]http://img836.imageshack.us/img836/3263/pic17y.png[/IMG]
[IMG]http://img101.imageshack.us/img101/1047/pic18.png[/IMG]

** ** ** ** ** ** ** ** **

Note

PRESTiGE - IS LOOKING FOR?: CAMMER'S, AUDIO SUPPLIERS, SYNCER'S, RETAIL SUPPLIER'S, SILVER'S, SCREENER'S, LINE CAPPER'S

ENCODER'S - ANYTHING AT ALL EMAIL US AT..... prestige@hushmail.me

** ** ** ** ** ** ** ** **

Greets Are Flying Out To:

[b]BmB,HiTM4N,BIGGUY,Demedic,DiLLoN,Imagine,CTFX,Jammo
Encoders Past And Present[/b]

** ** ** ** ** ** ** ** ** 

PRESTiGE is the level of respect at which one is regarded by others....RIzE Above Or Sink Below

[IMG]http://leetleech.org/images/83508160282003703104.png[/IMG][/align]